<svg width="300" height="100" viewBox="0 0 300 100" xmlns="http://www.w3.org/2000/svg">
  <defs>
    <radialGradient id="gradLarge" cx="50%" cy="50%" r="50%">
      <stop offset="0%" style="stop-color:#8BA4FF;stop-opacity:1" />
      <stop offset="50%" style="stop-color:#4a67f2;stop-opacity:1" />
      <stop offset="100%" style="stop-color:#3451D1;stop-opacity:1" />
    </radialGradient>
    
    <radialGradient id="gradMedium" cx="50%" cy="50%" r="50%">
      <stop offset="0%" style="stop-color:#8BA4FF;stop-opacity:1" />
      <stop offset="50%" style="stop-color:#4a67f2;stop-opacity:1" />
      <stop offset="100%" style="stop-color:#3451D1;stop-opacity:1" />
    </radialGradient>
    
    <radialGradient id="gradSmall" cx="50%" cy="50%" r="50%">
      <stop offset="0%" style="stop-color:#8BA4FF;stop-opacity:1" />
      <stop offset="50%" style="stop-color:#4a67f2;stop-opacity:1" />
      <stop offset="100%" style="stop-color:#3451D1;stop-opacity:1" />
    </radialGradient>
  </defs>
  
  <!-- Stars group (scaled and repositioned for new viewBox) -->
  <g transform="translate(-5, 5) scale(0.1)">
    <!-- Small star -->
    <path d="M 330 290 
             C 335 320, 335 320, 340 340
             C 360 345, 360 345, 390 350
             C 360 355, 360 355, 340 360
             C 335 380, 335 380, 330 410
             C 325 380, 325 380, 320 360
             C 300 355, 300 355, 270 350
             C 300 345, 300 345, 320 340
             C 325 320, 325 320, 330 290 Z" 
          fill="url(#gradSmall)"
          transform-origin="330 350">
      <animateTransform
        attributeName="transform"
        type="scale"
        values="0;1.2;1;1.1;1"
        dur="1.5s"
        repeatCount="1"/>
      <animate
        attributeName="opacity"
        values="0;1;1;0.8"
        dur="1.5s"
        repeatCount="1"/>
    </path>
    
    <!-- Medium star -->
    <path d="M 360 540 
             C 370 600, 370 600, 380 630
             C 410 640, 410 640, 470 650
             C 410 660, 410 660, 380 670
             C 370 700, 370 700, 360 760
             C 350 700, 350 700, 340 670
             C 310 660, 310 660, 250 650
             C 310 640, 310 640, 340 630
             C 350 600, 350 600, 360 540 Z" 
          fill="url(#gradMedium)"
          transform-origin="360 650">
      <animateTransform
        attributeName="transform"
        type="scale"
        values="0;1.2;1;1.1;1"
        dur="1.5s"
        begin="0.5s"
        repeatCount="1"/>
      <animate
        attributeName="opacity"
        values="0;1;1;0.8"
        dur="1.5s"
        begin="0.5s"
        repeatCount="1"/>
    </path>
    
    <!-- Large star -->
    <path d="M 520 320 
             C 530 380, 530 380, 550 450
             C 580 460, 610 460, 690 480
             C 600 500, 600 500, 550 510
             C 530 580, 530 580, 520 640
             C 510 580, 510 580, 490 510
             C 460 500, 490 510, 360 480
             C 460 460, 490 460, 490 450
             C 510 380, 510 380, 520 320 Z" 
          fill="url(#gradLarge)"
          transform-origin="520 480">
      <animateTransform
        attributeName="transform"
        type="scale"
        values="0;1.2;1;1.1;1"
        dur="1.5s"
        begin="1s"
        repeatCount="1"/>
      <animate
        attributeName="opacity"
        values="0;1;1;0.8"
        dur="1.5s"
        begin="1s"
        repeatCount="1"/>
    </path>
  </g>
  
  <!-- DATAPITCH text (repositioned and scaled for new viewBox) -->
  <g fill="#3451D1" transform="translate(80, 25) scale(0.75)">
    <path d="M2.50 50.55Q1.30 50.55 0.65 49.90Q0 49.25 0 48.05L0 17.80Q0 16.60 0.65 15.95Q1.30 15.30 2.50 15.30L12.15 15.30Q20.80 15.30 25.48 19.82Q30.15 24.35 30.15 32.90Q30.15 37.15 28.95 40.45Q27.75 43.75 25.45 45.97Q23.15 48.20 19.83 49.38Q16.50 50.55 12.15 50.55L2.50 50.55M4.65 46.60L11.85 46.60Q15.25 46.60 17.75 45.75Q20.25 44.90 21.93 43.20Q23.60 41.50 24.45 38.92Q25.30 36.35 25.30 32.90Q25.30 26.05 21.93 22.65Q18.55 19.25 11.85 19.25L4.65 19.25L4.65 46.60ZM36.20 50.90Q35.30 50.90 34.78 50.50Q34.25 50.10 34.15 49.40Q34.05 48.70 34.45 47.85L48.10 16.95Q48.55 15.90 49.25 15.42Q49.95 14.95 50.80 14.95Q51.65 14.95 52.33 15.42Q53 15.90 53.50 16.95L67.15 47.85Q67.55 48.70 67.47 49.42Q67.40 50.15 66.90 50.52Q66.40 50.90 65.50 50.90Q64.50 50.90 63.90 50.38Q63.30 49.85 62.85 48.85L59.30 40.55L61.45 41.75L40.05 41.75L42.20 40.55L38.65 48.85Q38.20 49.95 37.65 50.42Q37.10 50.90 36.20 50.90M50.70 20.55L42.90 39L41.70 37.95L59.80 37.95L58.65 39L50.80 20.55L50.70 20.55ZM80.45 50.90Q79.30 50.90 78.70 50.27Q78.10 49.65 78.10 48.50L78.10 19.25L67.15 19.25Q66.20 19.25 65.65 18.72Q65.10 18.20 65.10 17.25Q65.10 16.30 65.65 15.80Q66.20 15.30 67.15 15.30L93.70 15.30Q94.70 15.30 95.22 15.80Q95.75 16.30 95.75 17.25Q95.75 18.20 95.22 18.72Q94.70 19.25 93.70 19.25L82.75 19.25L82.75 48.50Q82.75 49.65 82.17 50.27Q81.60 50.90 80.45 50.90ZM95.50 50.90Q94.60 50.90 94.08 50.50Q93.55 50.10 93.45 49.40Q93.35 48.70 93.75 47.85L107.40 16.95Q107.85 15.90 108.55 15.42Q109.25 14.95 110.10 14.95Q110.95 14.95 111.63 15.42Q112.30 15.90 112.80 16.95L126.45 47.85Q126.85 48.70 126.78 49.42Q126.70 50.15 126.20 50.52Q125.70 50.90 124.80 50.90Q123.80 50.90 123.20 50.38Q122.60 49.85 122.15 48.85L118.60 40.55L120.75 41.75L99.35 41.75L101.50 40.55L97.95 48.85Q97.50 49.95 96.95 50.42Q96.40 50.90 95.50 50.90M110 20.55L102.20 39L101 37.95L119.10 37.95L117.95 39L110.10 20.55L110 20.55ZM134.95 50.90Q133.85 50.90 133.25 50.27Q132.65 49.65 132.65 48.50L132.65 17.65Q132.65 16.50 133.28 15.90Q133.90 15.30 135 15.30L146.90 15.30Q152.60 15.30 155.68 18.10Q158.75 20.90 158.75 25.95Q158.75 31.05 155.68 33.85Q152.60 36.65 146.90 36.65L137.30 36.65L137.30 48.50Q137.30 49.65 136.72 50.27Q136.15 50.90 134.95 50.90M137.30 32.90L146.30 32.90Q150.20 32.90 152.18 31.12Q154.15 29.35 154.15 25.95Q154.15 22.55 152.18 20.82Q150.20 19.10 146.30 19.10L137.30 19.10L137.30 32.90ZM166.80 50.90Q165.70 50.90 165.10 50.27Q164.50 49.65 164.50 48.50L164.50 17.35Q164.50 16.15 165.10 15.55Q165.70 14.95 166.80 14.95Q167.95 14.95 168.55 15.55Q169.15 16.15 169.15 17.35L169.15 48.50Q169.15 49.65 168.57 50.27Q168 50.90 166.80 50.90ZM188.55 50.90Q187.40 50.90 186.80 50.27Q186.20 49.65 186.20 48.50L186.20 19.25L175.25 19.25Q174.30 19.25 173.75 18.72Q173.20 18.20 173.20 17.25Q173.20 16.30 173.75 15.80Q174.30 15.30 175.25 15.30L201.80 15.30Q202.80 15.30 203.32 15.80Q203.85 16.30 203.85 17.25Q203.85 18.20 203.32 18.72Q202.80 19.25 201.80 19.25L190.85 19.25L190.85 48.50Q190.85 49.65 190.28 50.27Q189.70 50.90 188.55 50.90ZM221.25 51Q216 51 212.25 48.80Q208.50 46.60 206.47 42.52Q204.45 38.45 204.45 32.90Q204.45 28.75 205.60 25.42Q206.75 22.10 208.90 19.72Q211.05 17.35 214.18 16.10Q217.30 14.85 221.25 14.85Q224.25 14.85 227.03 15.70Q229.80 16.55 231.80 18.10Q232.60 18.65 232.85 19.35Q233.10 20.05 232.93 20.67Q232.75 21.30 232.28 21.72Q231.80 22.15 231.10 22.17Q230.40 22.20 229.60 21.65Q227.85 20.30 225.78 19.67Q223.70 19.05 221.35 19.05Q217.50 19.05 214.82 20.67Q212.15 22.30 210.78 25.37Q209.40 28.45 209.40 32.90Q209.40 37.30 210.78 40.42Q212.15 43.55 214.82 45.17Q217.50 46.80 221.35 46.80Q223.70 46.80 225.82 46.15Q227.95 45.50 229.75 44.15Q230.55 43.60 231.22 43.65Q231.90 43.70 232.35 44.07Q232.80 44.45 232.97 45.07Q233.15 45.70 232.95 46.35Q232.75 47 232.05 47.50Q230 49.25 227.18 50.13Q224.35 51 221.25 51ZM241.80 50.90Q240.70 50.90 240.10 50.27Q239.50 49.65 239.50 48.50L239.50 17.35Q239.50 16.15 240.10 15.55Q240.70 14.95 241.80 14.95Q242.95 14.95 243.55 15.55Q244.15 16.15 244.15 17.35L244.15 30.70L264.55 30.70L264.55 17.35Q264.55 16.15 265.15 15.55Q265.75 14.95 266.90 14.95Q268 14.95 268.60 15.55Q269.20 16.15 269.20 17.35L269.20 48.50Q269.20 49.65 268.60 50.27Q268 50.90 266.90 50.90Q265.75 50.90 265.15 50.27Q264.55 49.65 264.55 48.50L264.55 34.65L244.15 34.65L244.15 48.50Q244.15 49.65 243.57 50.27Q243 50.90 241.80 50.90Z"/>
  </g>
</svg>